<?xml version="1.0" standalone="no"?>
<svg xmlns:xlink="http://www.w3.org/1999/xlink" id="wave" style="transform:rotate(180deg); transition: 0.3s" viewBox="0 0 1440 490" version="1.1" xmlns="http://www.w3.org/2000/svg"><defs><linearGradient id="sw-gradient-0" x1="0" x2="0" y1="1" y2="0"><stop stop-color="rgba(34, 37, 75, 1)" offset="0%"/><stop stop-color="rgba(34, 37, 75, 1)" offset="100%"/></linearGradient></defs><path style="transform:translate(0, 0px); opacity:1" fill="url(#sw-gradient-0)" d="M0,392L120,367.5C240,343,480,294,720,302.2C960,310,1200,376,1440,343C1680,310,1920,180,2160,138.8C2400,98,2640,147,2880,212.3C3120,278,3360,359,3600,400.2C3840,441,4080,441,4320,367.5C4560,294,4800,147,5040,114.3C5280,82,5520,163,5760,171.5C6000,180,6240,114,6480,106.2C6720,98,6960,147,7200,179.7C7440,212,7680,229,7920,236.8C8160,245,8400,245,8640,245C8880,245,9120,245,9360,228.7C9600,212,9840,180,10080,163.3C10320,147,10560,147,10800,196C11040,245,11280,343,11520,326.7C11760,310,12000,180,12240,114.3C12480,49,12720,49,12960,81.7C13200,114,13440,180,13680,179.7C13920,180,14160,114,14400,89.8C14640,65,14880,82,15120,130.7C15360,180,15600,261,15840,245C16080,229,16320,114,16560,81.7C16800,49,17040,98,17160,122.5L17280,147L17280,490L17160,490C17040,490,16800,490,16560,490C16320,490,16080,490,15840,490C15600,490,15360,490,15120,490C14880,490,14640,490,14400,490C14160,490,13920,490,13680,490C13440,490,13200,490,12960,490C12720,490,12480,490,12240,490C12000,490,11760,490,11520,490C11280,490,11040,490,10800,490C10560,490,10320,490,10080,490C9840,490,9600,490,9360,490C9120,490,8880,490,8640,490C8400,490,8160,490,7920,490C7680,490,7440,490,7200,490C6960,490,6720,490,6480,490C6240,490,6000,490,5760,490C5520,490,5280,490,5040,490C4800,490,4560,490,4320,490C4080,490,3840,490,3600,490C3360,490,3120,490,2880,490C2640,490,2400,490,2160,490C1920,490,1680,490,1440,490C1200,490,960,490,720,490C480,490,240,490,120,490L0,490Z"/></svg>